# xmcd
#
# Track frame offsets:
#	150
#	13226
#	28328
#	41556
#	55533
#	69917
#	83324
#	98036
#	109484
#	123739
#	138033
#	153289
#	164086
#	178687
#	192278
#	206729
#	219755
#	233373
#	246288
#	260972
#	275873
#	292445
#	305909
#	321073
#	330517
#
# Disc length: 4618
#
# Revision: 1
# Processed by: cddbd v1.5.1PL0 Copyright (c) Steve Scherf et al.
# Submitted via: CDex 1.51
# Normalized: r0:TDELIM( - )
#
DISCID=78120819
DTITLE=Various Artist - Big Band Greatest
DYEAR=2000
DGENRE=Jazz
TTITLE0=Tommy Dorsey - Opus One
TTITLE1=Glenn Miller w. Tex Beneke and The Modernaires - Chattanooga Choo Choo
TTITLE2=Benny Goodman - A String Of Pearls
TTITLE3=Gene Krupa w. Irine Daye - Drumboogie
TTITLE4=Glenn Miller - Pennsylvania 6-5000
TTITLE5=Lionel Hampton w. Curly Hammer - Hey! Ba-Ba-Re-Bop
TTITLE6=Glenn Miller - American Patrol
TTITLE7=Benny Goodman - Let's Dance
TTITLE8=Lionel Hampton - Flying Home
TTITLE9=Benny Goodmann - Memories Of You
TTITLE10=Glenn Miller - Serenade In Blue
TTITLE11=Gene Krupa w. Anita O'Day - Tea For Two
TTITLE12=Woody Hermann - Four Brothers
TTITLE13=Count Basie - One O'Clock Jump
TTITLE14=Les Brown w. Doris Day - Sentimental Journey
TTITLE15=Duke Ellington - Take The 'A' Train
TTITLE16=Artie Shaw - Frenesi
TTITLE17=Les Brown - I've Got My Love To Keep Me Warm
TTITLE18=Harry James - Two O'Clock Jump
TTITLE19=Glenn Miller - Perfidia
TTITLE20=Tommy Dorsey w. Frank Sinatra - This Love Of Mine
TTITLE21=Charlie Barnett - Skyliner
TTITLE22=Glenn Miller - Moonlight Serenade
TTITLE23=Woody Hermann - Woodchopper's Ball
TTITLE24=Glenn Miller - St. Louis Blues March
EXTD=YEAR: 2000
EXTT0=
EXTT1=
EXTT2=
EXTT3=
EXTT4=
EXTT5=
EXTT6=
EXTT7=
EXTT8=
EXTT9=
EXTT10=
EXTT11=
EXTT12=
EXTT13=
EXTT14=
EXTT15=
EXTT16=
EXTT17=
EXTT18=
EXTT19=
EXTT20=
EXTT21=
EXTT22=
EXTT23=
EXTT24=
PLAYORDER=
